<svg width="85" height="92" viewBox="0 0 85 92" fill="none" xmlns="http://www.w3.org/2000/svg">
<g filter="url(#filter0_d_8_615)">
<path d="M7.47577 33.3912L3.13922 24.6268C2.7813 23.8471 2.12076 24.2081 2.33706 24.9551L6.83773 35.1368L10.9645 32.2161L20.2833 25.1462L19.5747 24.2121L15.5713 27.2493C10.7674 30.8939 9.74431 31.6701 10.0557 31.4339L7.47577 33.3912Z" fill="#E0D4FA"/>
<path d="M60.8076 33.3912L65.1441 24.6268C65.502 23.8471 66.1626 24.2081 65.9463 24.9551L61.4456 35.1368L57.3188 32.2161L48 25.1462L48.7087 24.2121L52.712 27.2493C57.5159 30.8939 58.539 31.6701 58.2276 31.4339L60.8076 33.3912Z" fill="#E0D4FA"/>
<path d="M27.3124 70.7921C26.8211 61.6354 28.4477 48.9611 29.3224 43.7686L31.6674 44.2152C29.0085 56.2195 29.3224 62.417 29.3224 70.7921C29.3224 73.1371 27.4322 73.0254 27.3124 70.7921Z" fill="#E0D4FA"/>
<path d="M43.0786 70.7921C43.5699 61.6354 41.9433 48.9611 41.0686 43.7686L38.7236 44.2152C41.3825 56.2195 41.0686 62.417 41.0686 70.7921C41.0686 73.1371 42.9588 73.0254 43.0786 70.7921Z" fill="#E0D4FA"/>
<g filter="url(#filter1_d_8_615)">
<path d="M35.2619 1C33.9219 4.07086 32.0931 5.19102 33.4221 9.37507H33.518C34.3887 6.53728 43.1753 2.17988 39.617 5.35503C39.0017 6.5296 38.2499 8.14539 37.693 9.70516C45.3513 11.2472 51.1187 18.0126 51.1187 26.1252V33.1603C51.1187 42.3494 43.6694 49.7987 34.4803 49.7987C25.2911 49.7987 17.8418 42.3494 17.8418 33.1603V20.5418C18.1768 17.9735 18.6136 16.7451 19.5689 14.5736C21.0434 11.222 23.4896 5.12267 29.2319 1C27.5983 3.94054 28.0466 7.14657 29.1472 9.37507H29.2956C30.8125 5.39326 31.4623 3.42296 35.2619 1Z" fill="#E0D4FA"/>
</g>
<path d="M38.9469 28.0672V24.3433C39.9117 22.9185 40.6889 23.7497 40.9569 24.3433V28.0672C40.1851 30.0101 39.2953 28.8768 38.9469 28.0672Z" fill="#0F0F0F"/>
<path d="M30.4602 28.0672V24.3433C31.425 22.9185 32.2022 23.7497 32.4702 24.3433V28.0672C31.6984 30.0101 30.8086 28.8768 30.4602 28.0672Z" fill="#0F0F0F"/>
<g filter="url(#filter2_d_8_615)">
<path d="M17.9766 19.7748C17.9766 17.6416 18.1437 16.7679 19.4805 15.6333H47.386C49.2575 16.541 49.3912 18.0161 50.0039 19.7748H17.9766Z" fill="#D5FF5F"/>
</g>
<path d="M41.0884 36.3864C41.5557 34.5173 40.6604 34.0684 39.7778 34.1387C39.0559 34.1962 38.3865 34.555 37.6667 34.6338C36.6871 34.741 35.4444 34.7674 34.4802 34.6728C33.7232 34.5986 33.0274 34.1827 32.2681 34.1376C31.3135 34.0808 30.2252 34.5347 30.8728 36.6625C32.2532 40.2518 40.122 40.2518 41.0884 36.3864Z" fill="#0F0F0F"/>
<path d="M35.7456 35.1265C35.2328 37.7209 34.4045 35.9263 34.4045 34.6838C35.3708 34.7801 36.3984 34.6806 37.1655 34.6838C36.4445 36.4858 35.8812 35.9319 35.7456 35.1265Z" fill="white"/>
<path d="M33.7142 38.9635C34.5425 38.2732 37.3035 38.2732 38.2698 38.9635C36.4752 39.5157 34.9291 39.4052 33.7142 38.9635Z" fill="#FC3B91"/>
</g>
<defs>
<filter id="filter0_d_8_615" x="1.29443" y="0" width="83.6945" height="91.5093" filterUnits="userSpaceOnUse" color-interpolation-filters="sRGB">
<feFlood flood-opacity="0" result="BackgroundImageFix"/>
<feColorMatrix in="SourceAlpha" type="matrix" values="0 0 0 0 0 0 0 0 0 0 0 0 0 0 0 0 0 0 127 0" result="hardAlpha"/>
<feOffset dx="9" dy="9"/>
<feGaussianBlur stdDeviation="5"/>
<feComposite in2="hardAlpha" operator="out"/>
<feColorMatrix type="matrix" values="0 0 0 0 0 0 0 0 0 0 0 0 0 0 0 0 0 0 0.25 0"/>
<feBlend mode="normal" in2="BackgroundImageFix" result="effect1_dropShadow_8_615"/>
<feBlend mode="normal" in="SourceGraphic" in2="effect1_dropShadow_8_615" result="shape"/>
</filter>
<filter id="filter1_d_8_615" x="17.8418" y="1" width="38.777" height="61.2988" filterUnits="userSpaceOnUse" color-interpolation-filters="sRGB">
<feFlood flood-opacity="0" result="BackgroundImageFix"/>
<feColorMatrix in="SourceAlpha" type="matrix" values="0 0 0 0 0 0 0 0 0 0 0 0 0 0 0 0 0 0 127 0" result="hardAlpha"/>
<feOffset dx="3" dy="10"/>
<feGaussianBlur stdDeviation="1.25"/>
<feComposite in2="hardAlpha" operator="out"/>
<feColorMatrix type="matrix" values="0 0 0 0 0 0 0 0 0 0 0 0 0 0 0 0 0 0 0.25 0"/>
<feBlend mode="normal" in2="BackgroundImageFix" result="effect1_dropShadow_8_615"/>
<feBlend mode="normal" in="SourceGraphic" in2="effect1_dropShadow_8_615" result="shape"/>
</filter>
<filter id="filter2_d_8_615" x="17.6766" y="15.3333" width="40.6273" height="12.7416" filterUnits="userSpaceOnUse" color-interpolation-filters="sRGB">
<feFlood flood-opacity="0" result="BackgroundImageFix"/>
<feColorMatrix in="SourceAlpha" type="matrix" values="0 0 0 0 0 0 0 0 0 0 0 0 0 0 0 0 0 0 127 0" result="hardAlpha"/>
<feOffset dx="4" dy="4"/>
<feGaussianBlur stdDeviation="2.15"/>
<feComposite in2="hardAlpha" operator="out"/>
<feColorMatrix type="matrix" values="0 0 0 0 0 0 0 0 0 0 0 0 0 0 0 0 0 0 0.49 0"/>
<feBlend mode="normal" in2="BackgroundImageFix" result="effect1_dropShadow_8_615"/>
<feBlend mode="normal" in="SourceGraphic" in2="effect1_dropShadow_8_615" result="shape"/>
</filter>
</defs>
</svg>
